<svg xmlns="http://www.w3.org/2000/svg" fill="none" viewBox="0 0 146 84"><path fill="#FDFEFF" d="M29 54h4l1-2 2-1 1-2 2-7 3 5c-2 9-6 14-12 14-3 0-7-2-11-6-2 4-6 6-11 6l-5-2c-2-2-3-4-3-7s1-5 3-7c1-2 4-3 7-3h2l1-10-10 3v-6l11-3 1-13c1-9 5-13 13-13a10 10 0 0 1 10 10c-1 7-5 13-14 18l-2 19-1 1 8 6Zm3-44c0-2-1-3-3-3s-3 3-4 8l-1 6c5-3 8-6 8-11ZM6 51c0 2 1 3 2 3 2 0 3-2 3-5H7l-1 2ZM103 32c0 5-3 10-9 12l1 4c1 4 2 6 4 6h1c4 0 7-4 9-11l3 4-3 7-4 5-8 2c-5 0-9-3-11-10l-2-8 7-4 2-5c0-3-1-5-5-5l-4 2-3 5a2695 2695 0 0 1-2 24H69l6-59 5-1c3 0 5 1 5 4l-2 22c2-3 6-4 10-4 3 0 5 1 7 3 2 1 3 4 3 7Z"/><path fill="#FDFEFF" d="M119 84c-2 0-5-1-7-3s-3-4-3-8 2-8 6-12l-7-3-2-8v-6a4903 4903 0 0 0 3-21l4-1h3l2 2 1 3-3 20v2c0 3 1 4 4 4l6-3a834 834 0 0 0 3-25l2-2 4-1 4 1-3 29c5 1 9 6 10 13l-3 5c-1-7-4-11-8-12l-1 10-4 11c-3 3-6 5-11 5Zm-4-12 1 4 3 1c2 0 3-1 3-2 1-1 2-3 2-7l1-9c-7 4-10 8-10 13ZM85 75l-8-11-4-2-2-4c3-3 5-7 6-12 2-13-6-24-18-26-11-2-22 6-24 18-1 13 6 24 18 26 5 1 9 0 13-2l3 3v5l8 11 3 2 4-1c2-2 2-5 1-7ZM53 60c-9-2-15-11-14-21 2-10 11-16 20-15 9 2 15 11 14 21-2 9-10 16-20 15Z"/></svg>